{
    "asset" : {
        "generator" : "Khronos glTF Blender I/O v1.3.48",
        "version" : "2.0"
    },
    "scene" : 0,
    "scenes" : [
        {
            "name" : "Scene",
            "nodes" : [
                0
            ]
        }
    ],
    "nodes" : [
        {
            "mesh" : 0,
            "name" : "Cube_Cube.001",
            "rotation" : [
                0.7071068286895752,
                0,
                0,
                0.7071067094802856
            ]
        }
    ],
    "materials" : [
        {
            "doubleSided" : true,
            "emissiveFactor" : [
                0,
                0,
                0
            ],
            "name" : "Material.001",
            "pbrMetallicRoughness" : {
                "baseColorFactor" : [
                    0.021767999976873398,
                    0.021767999976873398,
                    0.021767999976873398,
                    1
                ],
                "metallicFactor" : 0,
                "roughnessFactor" : 0.6732679605484009
            }
        },
        {
            "doubleSided" : true,
            "emissiveFactor" : [
                0,
                0,
                0
            ],
            "name" : "Material.002",
            "pbrMetallicRoughness" : {
                "baseColorFactor" : [
                    0.6399999856948853,
                    0.6399999856948853,
                    0.6399999856948853,
                    0.18000000715255737
                ],
                "metallicFactor" : 0,
                "roughnessFactor" : 0.6732679605484009
            }
        }
    ],
    "meshes" : [
        {
            "name" : "Cube_Cube.001",
            "primitives" : [
                {
                    "attributes" : {
                        "POSITION" : 0,
                        "NORMAL" : 1
                    },
                    "indices" : 2,
                    "material" : 0
                },
                {
                    "attributes" : {
                        "POSITION" : 3,
                        "NORMAL" : 4
                    },
                    "indices" : 5,
                    "material" : 1
                }
            ]
        }
    ],
    "accessors" : [
        {
            "bufferView" : 0,
            "componentType" : 5126,
            "count" : 142,
            "max" : [
                1,
                1.470378041267395,
                -0.0015450000064447522
            ],
            "min" : [
                -1,
                -1.470378041267395,
                -1.5428969860076904
            ],
            "type" : "VEC3"
        },
        {
            "bufferView" : 1,
            "componentType" : 5126,
            "count" : 142,
            "type" : "VEC3"
        },
        {
            "bufferView" : 2,
            "componentType" : 5123,
            "count" : 264,
            "type" : "SCALAR"
        },
        {
            "bufferView" : 3,
            "componentType" : 5126,
            "count" : 8,
            "max" : [
                0.8999999761581421,
                1.3233400583267212,
                -1.5025279521942139
            ],
            "min" : [
                -0.9049999713897705,
                -1.3306920528411865,
                -1.5428969860076904
            ],
            "type" : "VEC3"
        },
        {
            "bufferView" : 4,
            "componentType" : 5126,
            "count" : 8,
            "type" : "VEC3"
        },
        {
            "bufferView" : 5,
            "componentType" : 5123,
            "count" : 12,
            "type" : "SCALAR"
        }
    ],
    "bufferViews" : [
        {
            "buffer" : 0,
            "byteLength" : 1704,
            "byteOffset" : 0
        },
        {
            "buffer" : 0,
            "byteLength" : 1704,
            "byteOffset" : 1704
        },
        {
            "buffer" : 0,
            "byteLength" : 528,
            "byteOffset" : 3408
        },
        {
            "buffer" : 0,
            "byteLength" : 96,
            "byteOffset" : 3936
        },
        {
            "buffer" : 0,
            "byteLength" : 96,
            "byteOffset" : 4032
        },
        {
            "buffer" : 0,
            "byteLength" : 24,
            "byteOffset" : 4128
        }
    ],
    "buffers" : [
        {
            "byteLength" : 4152,
            "uri" : "data:application/octet-stream;base64,"
        }
    ]
}
