{
    "asset" : {
        "generator" : "Khronos glTF Blender I/O v1.3.48",
        "version" : "2.0"
    },
    "scene" : 0,
    "scenes" : [
        {
            "name" : "Scene",
            "nodes" : [
                0
            ]
        }
    ],
    "nodes" : [
        {
            "mesh" : 0,
            "name" : "stickman",
            "rotation" : [
                0.7071068286895752,
                0,
                0,
                0.7071067094802856
            ],
            "scale" : [
                0.10000000149011612,
                0.10000000149011612,
                0.10000018030405045
            ],
            "translation" : [
                -2.130516767501831,
                0,
                0
            ]
        }
    ],
    "materials" : [
        {
            "doubleSided" : true,
            "name" : "defaultMat",
            "pbrMetallicRoughness" : {}
        }
    ],
    "meshes" : [
        {
            "name" : "stickman",
            "primitives" : [
                {
                    "attributes" : {
                        "POSITION" : 0,
                        "NORMAL" : 1,
                        "TEXCOORD_0" : 2
                    },
                    "indices" : 3,
                    "material" : 0
                }
            ]
        }
    ],
    "accessors" : [
        {
            "bufferView" : 0,
            "componentType" : 5126,
            "count" : 82204,
            "max" : [
                52.862125396728516,
                7.7069993019104,
                36.94990539550781
            ],
            "min" : [
                -5.7950592041015625,
                -15.185500144958496,
                -53.10760498046875
            ],
            "type" : "VEC3"
        },
        {
            "bufferView" : 1,
            "componentType" : 5126,
            "count" : 82204,
            "type" : "VEC3"
        },
        {
            "bufferView" : 2,
            "componentType" : 5126,
            "count" : 82204,
            "type" : "VEC2"
        },
        {
            "bufferView" : 3,
            "componentType" : 5125,
            "count" : 123258,
            "type" : "SCALAR"
        }
    ],
    "bufferViews" : [
        {
            "buffer" : 0,
            "byteLength" : 986448,
            "byteOffset" : 0
        },
        {
            "buffer" : 0,
            "byteLength" : 986448,
            "byteOffset" : 986448
        },
        {
            "buffer" : 0,
            "byteLength" : 657632,
            "byteOffset" : 1972896
        },
        {
            "buffer" : 0,
            "byteLength" : 493032,
            "byteOffset" : 2630528
        }
    ],
    "buffers" : [
        {
            "byteLength" : 3123560,
            "uri" : "data:application/octet-stream;base64,"
        }
    ]
}
